<svg width="120" height="48" viewBox="0 0 120 48" fill="none" xmlns="http://www.w3.org/2000/svg">
<rect width="120" height="48" fill="white"/>
<path fill-rule="evenodd" clip-rule="evenodd" d="M38.9893 0.142289C37.4365 0.51489 36.2894 1.89071 36.0822 3.62888C36.0096 4.24026 35.9793 13.831 36.015 24.9417C36.0859 47.0143 36.0109 45.7219 37.2876 46.8799C38.4893 47.9699 37.4347 47.9177 59.5721 47.9842C74.615 48.0295 80.5304 47.9797 81.1732 47.8025C82.2799 47.4972 83.4784 46.2858 83.8041 45.143C83.9812 44.5218 84.0301 38.6187 83.9833 23.5522C83.9141 1.39498 83.9664 2.44929 82.8775 1.24641C81.7178 -0.0344989 83.0769 0.0407481 60.4264 0.00333835C49.0326 -0.0154734 39.3859 0.0471612 38.9893 0.142289ZM71.8515 19.0966C72.5503 19.5098 72.92 20.2046 72.92 21.1039C72.92 21.7331 72.9155 21.7352 71.6386 21.7352H70.3572V21.0939C70.3572 20.5952 70.2623 20.4526 69.93 20.4526C69.5599 20.4526 69.5029 20.5952 69.5029 21.5214C69.5029 22.1093 69.5448 22.5903 69.5958 22.5903C69.6469 22.5903 69.949 22.4911 70.2673 22.3701C70.6718 22.2162 71.0613 22.2211 71.5619 22.3865C72.7207 22.7692 72.92 23.2568 72.92 25.7087C72.92 27.572 72.8582 27.9553 72.4813 28.435C71.6727 29.4638 69.1102 29.709 67.8437 28.8785C66.9356 28.2828 66.7266 27.3665 66.7266 23.9798C66.7266 19.9006 66.9555 19.3337 68.8498 18.7204C69.6039 18.4763 71.1245 18.667 71.8515 19.0966ZM45.1598 19.139C46.4517 19.8277 46.8919 22.1552 45.9152 23.1328C45.4183 23.6303 45.4121 23.6666 45.7911 23.8697C46.393 24.192 46.7216 25.4631 46.5871 26.9478C46.4912 28.0063 46.3639 28.3409 45.9075 28.7338C45.3924 29.1774 45.1366 29.2171 42.7952 29.2171H40.2444V23.9798V18.7424H42.3301C43.9517 18.7424 44.5811 18.8307 45.1598 19.139ZM79.1134 22.1627C79.1134 25.4405 79.1311 25.5831 79.5405 25.5831C79.898 25.5831 79.9676 25.7256 79.9676 26.4582C79.9676 27.1534 79.8799 27.3563 79.5405 27.445C79.2058 27.5326 79.1134 27.7366 79.1134 28.3871V29.2171H77.832H76.5506V28.3715V27.5258L75.0022 27.4629L73.4539 27.4001L73.3868 26.5861C73.3415 26.0362 73.6798 24.6841 74.4301 22.4175C75.0407 20.5727 75.581 18.9908 75.631 18.9027C75.6807 18.8147 76.4846 18.7424 77.4174 18.7424H79.1134V22.1627ZM51.8752 20.7835C52.936 21.2873 53.0584 21.7961 53.0584 25.7V29.2171H51.777C51.0459 29.2171 50.4956 29.1233 50.4956 28.9985C50.4956 28.8781 50.2557 28.9371 49.9625 29.1293C49.2761 29.5795 48.0678 29.3755 47.6186 28.7336C47.2515 28.209 47.1704 25.893 47.5007 25.3699C47.612 25.194 48.3072 24.7611 49.0459 24.408C50.307 23.8051 50.3888 23.7215 50.3888 23.0356C50.3888 21.9304 49.8942 21.9496 49.8145 23.0578L49.7481 23.9798L48.5201 24.0439L47.2921 24.108V23.076C47.2921 21.8718 47.7021 21.1745 48.6542 20.7598C49.5522 20.3686 51.0244 20.3795 51.8752 20.7835ZM58.0669 20.7551C58.9248 21.114 59.2518 21.6458 59.2518 22.683V23.4454H58.0771C56.9145 23.4454 56.9025 23.4389 56.9025 22.804C56.9025 22.3765 56.7958 22.1627 56.5822 22.1627C56.3693 22.1627 56.2618 22.3759 56.2618 22.7987C56.2618 23.3558 56.4312 23.5319 57.6317 24.223C59.1465 25.0952 59.4653 25.5745 59.4653 26.9792C59.4653 27.7252 59.3323 28.0769 58.8421 28.6259C58.2527 29.2862 58.1399 29.3238 56.7599 29.3204C55.7072 29.3176 55.1396 29.2082 54.7218 28.9271C54.1153 28.519 54.0252 28.3343 53.7934 27.026L53.6514 26.2244H54.9567H56.2618V26.9726C56.2618 27.495 56.3584 27.7208 56.5822 27.7208C56.8017 27.7208 56.9019 27.5021 56.9002 27.026C56.8981 26.4009 56.7674 26.2562 55.5974 25.5831C54.8822 25.1715 54.1625 24.5751 53.998 24.2577C53.6369 23.5604 53.6111 22.3763 53.941 21.6514C54.4339 20.5684 56.5309 20.1129 58.0669 20.7551ZM64.6097 20.94C65.5859 21.5984 65.8655 22.2376 65.8691 23.8194L65.8723 25.1555H64.2706H62.6688V26.4381C62.6688 27.4358 62.7399 27.7208 62.9892 27.7208C63.2311 27.7208 63.3095 27.4595 63.3095 26.6519V25.5831H64.5909H65.8723V26.5655C65.8723 27.1077 65.7091 27.8244 65.508 28.1654C64.4598 29.9416 61.214 29.7988 60.2551 27.9345C59.9341 27.3101 59.8811 26.7584 59.9347 24.6004C59.9824 22.6916 60.0832 21.9126 60.3196 21.6264C61.3385 20.3923 63.3262 20.0742 64.6097 20.94ZM43.0208 21.7352C43.0208 22.9047 43.5015 23.2574 43.7492 22.2696C43.9278 21.5575 43.6879 20.6663 43.3181 20.6663C43.1036 20.6663 43.0208 20.9646 43.0208 21.7352ZM75.9361 23.5445C75.6867 24.5396 75.4827 25.4054 75.4827 25.4685C75.4827 25.5315 75.723 25.5831 76.0167 25.5831C76.5465 25.5831 76.5506 25.5687 76.5506 23.6591C76.5506 22.601 76.5143 21.7352 76.4701 21.7352C76.4256 21.7352 76.1854 22.5494 75.9361 23.5445ZM62.6688 22.8932C62.6688 23.4454 62.7619 23.6591 63.0026 23.6591C63.2495 23.6591 63.3191 23.4821 63.2696 22.9808C63.173 22.0009 62.6688 21.9272 62.6688 22.8932ZM69.593 24.1602C69.5324 24.3182 69.5115 25.1598 69.5463 26.0307C69.5958 27.2671 69.6797 27.6139 69.93 27.6139C70.175 27.6139 70.2656 27.2889 70.3151 26.231C70.3508 25.4704 70.3249 24.6286 70.2576 24.3605C70.1227 23.8216 69.7641 23.7134 69.593 24.1602ZM43.0208 25.9037C43.0208 26.9488 43.0944 27.2932 43.3183 27.2932C43.6892 27.2932 43.875 26.8285 43.875 25.9016C43.875 25.3004 43.4428 24.5142 43.1124 24.5142C43.062 24.5142 43.0208 25.1395 43.0208 25.9037ZM50.1111 25.6258C49.7233 26.014 49.7756 27.7208 50.1752 27.7208C50.4212 27.7208 50.4956 27.4476 50.4956 26.545C50.4956 25.266 50.4881 25.2485 50.1111 25.6258Z" fill="black"/>
</svg>
