<svg width="120" height="48" viewBox="0 0 120 48" fill="none" xmlns="http://www.w3.org/2000/svg">
<rect width="120" height="48" fill="white"/>
<path fill-rule="evenodd" clip-rule="evenodd" d="M55.3016 0.477679C50.413 1.51672 46.5083 3.61779 43.0625 7.06331C39.5751 10.5509 37.4975 14.4445 36.4626 19.4328C35.226 25.3919 36.4968 31.8537 39.9346 37.0896C45.2104 45.1253 54.6727 49.2778 64.0004 47.6512C74.065 45.896 81.8959 38.0652 83.6511 28.0008C85.2778 18.6733 81.1252 9.21115 73.0894 3.93548C67.8473 0.493877 61.2545 -0.787875 55.3016 0.477679ZM64.0642 1.41483C72.83 2.94347 79.8831 9.51369 82.285 18.3877C83.0884 21.3567 83.0884 26.653 82.285 29.622C80.025 37.9722 73.972 44.0251 65.6216 46.285C63.9628 46.7339 62.8033 46.8506 60.0044 46.8506C57.2054 46.8506 56.0459 46.7339 54.3871 46.285C50.1426 45.1362 46.6405 43.1167 43.6692 40.1041C34.7884 31.1002 34.8446 16.7475 43.7959 7.79667C49.1806 2.4118 56.5235 0.0998938 64.0642 1.41483ZM57.277 3.66377C49.8557 4.61529 43.0978 10.1535 40.6471 17.292C36.3855 29.7064 44.6959 42.8834 57.7196 44.3616C64.0383 45.079 70.1172 42.898 74.6147 38.3001C86.4992 26.1503 79.2835 5.73714 62.3626 3.63947C59.9048 3.33484 59.8387 3.33536 57.277 3.66377ZM59.4818 7.8066V11.203H58.5948C57.1213 11.203 54.448 12.1746 52.8587 13.2879C52.0339 13.8655 51.2739 14.3382 51.1694 14.3382C51.0646 14.3382 49.9824 13.3331 48.7641 12.1046L46.5491 9.87083L47.4635 9.09358C50.0203 6.91962 54.281 5.07302 57.6509 4.67799C58.5862 4.56852 59.3805 4.46349 59.4165 4.44442C59.4526 4.42561 59.4818 5.93858 59.4818 7.8066ZM66.1682 5.58065C68.3218 6.29834 70.9799 7.76271 72.5452 9.09358L73.4596 9.87083L71.2446 12.1046C70.0263 13.3331 68.9392 14.3382 68.8284 14.3382C68.7179 14.3382 68.0383 13.9149 67.3185 13.3979C65.793 12.3019 62.9115 11.2163 61.5067 11.2085L60.5269 11.203V7.8565V4.51L62.3145 4.70098C63.2976 4.80601 65.0317 5.20182 66.1682 5.58065ZM64.7262 7.71124C64.4284 8.08981 64.1846 8.62409 64.1846 8.89868C64.1846 9.56463 65.33 10.6805 66.0135 10.6805C66.697 10.6805 67.8424 9.56463 67.8424 8.89868C67.8424 8.05062 66.8402 7.02282 66.0135 7.02282C65.5189 7.02282 65.0852 7.25482 64.7262 7.71124ZM52.1854 7.9725C51.5168 8.82213 51.5012 9.40161 52.1256 10.1726C53.139 11.424 55.3016 10.5937 55.3016 8.95328C55.3016 7.38597 53.1735 6.71609 52.1854 7.9725ZM66.6484 8.50626C66.7435 8.7542 66.6421 9.11866 66.4151 9.34596C66.0537 9.70702 65.9707 9.70441 65.5858 9.31983C65.3507 9.0847 65.2295 8.70665 65.3165 8.48013C65.526 7.9341 66.4357 7.95186 66.6484 8.50626ZM54.1697 8.7414C54.2568 8.96791 54.1596 9.32192 53.9537 9.52753C53.4494 10.032 52.5763 9.44889 52.8334 8.77954C53.0497 8.21548 53.9581 8.18961 54.1697 8.7414ZM48.1765 12.8301C49.365 14.0124 50.3375 15.0702 50.3375 15.181C50.3375 15.2915 49.9142 15.971 49.3972 16.6908C48.3012 18.2163 47.2156 21.0978 47.2078 22.5026L47.2023 23.4823H43.8557H40.5091L40.7001 21.6948C40.9211 19.6274 41.9741 16.2976 42.9436 14.5994C43.7188 13.2419 45.6229 10.6805 45.857 10.6805C45.9443 10.6805 46.988 11.6479 48.1765 12.8301ZM75.352 12.0521C77.5524 14.9498 78.8679 18.1479 79.2807 21.6033L79.5048 23.4823H76.1556H72.8065L72.801 22.5026C72.7931 21.0978 71.7076 18.2163 70.6116 16.6908C70.0945 15.971 69.6713 15.2965 69.6713 15.1922C69.6713 14.956 73.9069 10.6805 74.1405 10.6805C74.234 10.6805 74.7793 11.2976 75.352 12.0521ZM63.8343 12.8058C68.5677 14.318 71.7614 18.8316 71.7614 24.009C71.7614 30.7046 66.7077 35.7661 60.0044 35.7841C50.3168 35.8102 44.715 24.7936 50.4527 16.9996C53.549 12.7938 58.7221 11.1724 63.8343 12.8058ZM73.8369 16.1262C72.5854 17.1397 73.4157 19.3021 75.0562 19.3021C76.6236 19.3021 77.2935 17.1742 76.037 16.1861C75.1874 15.5175 74.6079 15.5018 73.8369 16.1262ZM43.6634 16.8084C43.3107 17.1611 43.022 17.7403 43.022 18.0956C43.022 18.8217 44.1102 19.8247 44.8979 19.8247C45.5639 19.8247 46.6797 18.6793 46.6797 17.9958C46.6797 17.6954 46.391 17.1611 46.0383 16.8084C45.6856 16.4557 45.1513 16.167 44.8509 16.167C44.5504 16.167 44.0161 16.4557 43.6634 16.8084ZM62.9413 17.0357C61.723 17.7123 61.213 19.0565 61.618 20.5235L61.8795 21.4709L57.6762 25.6798C55.3643 27.9948 53.4727 30.0277 53.4727 30.1973C53.4727 30.6937 53.9858 30.8695 54.4093 30.5181C54.7328 30.2495 54.9528 30.341 55.6817 31.0474C56.507 31.8477 57.1304 31.9355 57.1304 31.252C57.1304 31.0877 56.7584 30.5693 56.3035 30.1001C55.5822 29.3558 55.5343 29.2246 55.9289 29.0733C56.2379 28.9547 56.6622 29.1723 57.2699 29.7612C58.042 30.5095 58.1815 30.5633 58.3323 30.1704C58.4501 29.8636 58.244 29.448 57.6916 28.8779L56.8773 28.0379L59.8123 25.1142C62.0937 22.842 62.8349 22.2463 63.1396 22.4407C63.7298 22.8169 65.1594 22.7484 66.0221 22.3022C68.6847 20.9254 67.6344 16.6736 64.6377 16.6987C64.0292 16.7039 63.266 16.8554 62.9413 17.0357ZM75.2671 16.8481C75.8016 17.0532 75.8024 17.9655 75.2681 18.1703C75.0416 18.2573 74.6696 18.1421 74.4415 17.914C74.1 17.5723 74.0861 17.4284 74.3631 17.0945C74.7482 16.6305 74.7202 16.6383 75.2671 16.8481ZM45.3734 17.6039C45.6328 17.9167 45.6328 18.075 45.3734 18.3877C44.9551 18.8917 44.3545 18.8901 44.1603 18.3843C44.0101 17.9932 44.4702 17.212 44.8509 17.212C44.9593 17.212 45.1944 17.3884 45.3734 17.6039ZM65.9315 18.3025C67.1712 19.4675 66.275 21.6535 64.5575 21.6535C63.16 21.6535 62.4626 20.7683 62.6027 19.1715C62.721 17.8213 64.8323 17.2703 65.9315 18.3025ZM47.2078 25.5071C47.2156 26.9119 48.3012 29.7934 49.3972 31.3189C49.9142 32.0387 50.3375 32.7182 50.3375 32.8287C50.3375 32.9395 49.3324 34.0266 48.1039 35.2449L45.8701 37.4598L45.0928 36.5454C42.882 33.9456 41.0628 29.7082 40.7001 26.3149L40.5091 24.5274H43.8557H47.2023L47.2078 25.5071ZM79.3381 25.6612C79.3381 27.0018 78.5622 30.1523 77.7946 31.9279C77.2321 33.229 75.9197 35.3034 74.7903 36.6761L74.1452 37.4598L71.9082 35.2449C70.6779 34.0266 69.6713 32.9395 69.6713 32.8287C69.6713 32.7182 70.0945 32.0387 70.6116 31.3189C71.7076 29.7934 72.7931 26.9119 72.801 25.5071L72.8065 24.5274H76.0723H79.3381V25.6612ZM73.9704 28.8264C73.6177 29.1791 73.329 29.7134 73.329 30.0139C73.329 30.7188 74.453 31.8427 75.1579 31.8427C75.8944 31.8427 76.9867 30.7065 76.9867 29.9407C76.9867 29.1742 75.9769 28.185 75.1944 28.185C74.8739 28.185 74.3231 28.4737 73.9704 28.8264ZM43.8058 29.2301C43.0466 29.9893 43.1294 31.1613 43.9905 31.8385C45.2101 32.7979 46.7667 32.052 46.7667 30.5082C46.7667 28.9521 44.8927 28.1432 43.8058 29.2301ZM75.8549 29.6424C75.9419 29.8689 75.8207 30.2469 75.5856 30.4821C75.1895 30.8779 75.1257 30.8773 74.7231 30.4747C74.3639 30.1158 74.3469 29.9697 74.6244 29.635C75.0578 29.113 75.6532 29.1164 75.8549 29.6424ZM45.5984 30.1006C46.0072 30.5934 45.3857 31.4088 44.7788 31.1757C44.332 31.0043 44.1679 30.2615 44.5026 29.9269C44.7835 29.6458 45.2872 29.7257 45.5984 30.1006ZM52.6902 34.6118C54.2157 35.7078 57.0972 36.7934 58.5021 36.8012L59.4818 36.8067V40.0725V43.3382H58.3479C57.0074 43.3382 53.8568 42.5623 52.0812 41.7947C50.7801 41.2322 48.7056 39.9199 47.3329 38.7905L46.5491 38.1454L48.7641 35.9085C49.9824 34.6782 51.0696 33.6715 51.1803 33.6715C51.2908 33.6715 51.9704 34.0948 52.6902 34.6118ZM71.2446 35.9085L73.4596 38.1454L72.6758 38.7905C71.3031 39.9199 69.2287 41.2322 67.9276 41.7947C66.152 42.5623 63.0014 43.3382 61.6608 43.3382H60.5269V40.0725V36.8067L61.5067 36.8012C62.918 36.7934 65.8079 35.7015 67.2524 34.6309C67.9362 34.124 68.6157 33.7008 68.7626 33.6904C68.9094 33.6799 70.0263 34.6782 71.2446 35.9085ZM65.8345 37.3334C65.5208 37.4585 65.1385 37.795 64.9854 38.0811C63.9391 40.0364 66.4713 41.7563 67.8382 40.0184C68.9784 38.5689 67.5472 36.6507 65.8345 37.3334ZM52.8078 37.9706C52.4551 38.3233 52.1664 38.8576 52.1664 39.158C52.1664 39.9053 53.307 40.9869 54.095 40.9869C54.8211 40.9869 55.8241 39.8987 55.8241 39.111C55.8241 38.4451 54.6787 37.3292 53.9952 37.3292C53.6948 37.3292 53.1605 37.6179 52.8078 37.9706ZM67.3198 38.7539C67.3198 39.6129 66.135 40.0398 65.8455 39.2853C65.6025 38.6522 66.2351 38.0733 66.8247 38.3889C67.097 38.5347 67.3198 38.699 67.3198 38.7539ZM54.5149 38.7628C54.8984 39.2249 54.6863 39.9418 54.1661 39.9418C53.9636 39.9418 53.6517 39.7655 53.4727 39.5499C53.2132 39.2372 53.2132 39.0789 53.4727 38.7662C53.8816 38.2734 54.1084 38.2726 54.5149 38.7628Z" fill="black"/>
</svg>
